{"title":"Kelin (2008) BDRip 720p &amp;ndash; MediaClub","uid":9106576,"size":3803628938,"categoryP":"video","categoryS":"hd___movies","magnet":"?xt=urn:btih:243be189f1fd8b4e793b02c243172c611471ba72&amp;dn=Kelin+%282008%29+BDRip+720p+%26ndash%3B+MediaClub+&amp;tr=udp%3A%2F%2Ftracker.openbittorrent.com%3A80&amp;tr=udp%3A%2F%2Fopen.demonii.com%3A1337&amp;tr=udp%3A%2F%2Ftracker.coppersurfer.tk%3A6969&amp;tr=udp%3A%2F%2Fexodus.desync.com%3A6969","seeders":1,"leechers":0,"uploader":"neni69","files":1,"time":1382891187,"description":" &lt;a href=&quot; http://mediaclub.tv/&quot; rel=&quot;nofollow&quot; target=&quot;_NEW&quot;&gt; http://mediaclub.tv/&lt;/a&gt;   Welcome to MediaClub\n\n===================================================================\n\nGeneral\nUnique ID                      : 172601592403586859596708826835421712091 (0x81D9DB86D13AFCA1B4787235CE434EDB)\nComplete name                  : E:MCNewestka.2008.x264.BDRip(720p)-MediaClubNewestka.2008.x264.BDRip(720p)-MediaClub.mkv\nFormat                         : Matroska\nFormat version                 : Version 4 / Version 2\nFile size                      : 3.54 GiB\nDuration                       : 1h 29mn\nOverall bit rate               : 5 671 Kbps\nMovie name                     : -= Release MediaClub =-\nEncoded date                   : UTC 2013-10-22 18:21:14\nWriting application            : mkvmerge v6.4.1 ('Omega Point') built on Sep 16 2013 22:05:10\nWriting library                : libebml v1.3.0 + libmatroska v1.4.1\n\nVideo\nID                             : 1\nFormat                         : AVC\nFormat/Info                    : Advanced Video Codec\nFormat profile                 : &lt;a class=&quot;__cf_email__&quot; href=&quot;/cdn-cgi/l/email-protection&quot; data-cfemail=&quot;e0a8898788a0acd4ced1&quot;&gt;[email&amp;#160;protected]&lt;/a&gt;&lt;script cf-hash='f9e31' type=&quot;text/javascript&quot;&gt;\n/* &lt;![CDATA[ */!function(){try{var t=&quot;currentScript&quot;in document?document.currentScript:function(){for(var t=document.getElementsByTagName(&quot;script&quot;),e=t.length;e--;)if(t[e].getAttribute(&quot;cf-hash&quot;))return t[e]}();if(t&amp;&amp;t.previousSibling){var e,r,n,i,c=t.previousSibling,a=c.getAttribute(&quot;data-cfemail&quot;);if(a){for(e=&quot;&quot;,r=parseInt(a.substr(0,2),16),n=2;a.length-n;n+=2)i=parseInt(a.substr(n,2),16)^r,e+=String.fromCharCode(i);e=document.createTextNode(e),c.parentNode.replaceChild(e,c)}}}catch(u){}}();/* ]]&gt; */&lt;/script&gt;\nFormat settings, CABAC         : Yes\nFormat settings, ReFrames      : 8 frames\nCodec ID                       : V_MPEG4/ISO/AVC\nDuration                       : 1h 29mn\nBit rate                       : 3 600 Kbps\nNominal bit rate               : 3 940 Kbps\nWidth                          : 1 280 pixels\nHeight                         : 544 pixels\nDisplay aspect ratio           : 2.35:1\nFrame rate                     : 23.976 fps\nColor space                    : YUV\nChroma subsampling             : 4:2:0\nBit depth                      : 8 bits\nScan type                      : Progressive\nBits/(Pixel*Frame)             : 0.216\nStream size                    : 2.25 GiB (63%)\nTitle                          : Newestka.2009.x264.BDRip(720p)-neni\nWriting library                : x264 core 130 r2273 b3065e6\nEncoding settings              : cabac=1 // deblock=1:-3:-3 / analyse=0x3:0x113 / me=umh / subme=11 / psy=1 / psy_rd=1.00:0.20 // me_range=48 / chroma_me=1 / trellis=2 / 8x8dct=1 / cqm=0 / deadzone=21,11 / fast_pskip=0 / chroma_qp_offset=-3 / threads=9 / lookahead_threads=1 / sliced_threads=0 / nr=0 / decimate=0 / interlaced=0 / bluray_compat=0 / constrained_intra=0 / bframes=8 / b_pyramid=2 / b_adapt=2 / b_bias=0 / direct=3 / weightb=1 / open_gop=0 / weightp=2 / keyint=240 / keyint_min=23 / scenecut=40 / intra_refresh=0 / rc=2pass / mbtree=0 / bitrate=3940 / ratetol=1.0 / qcomp=0.60 / qpmin=0 / qpmax=69 / qpstep=4 / cplxblur=20.0 / qblur=0.5 / ip_ratio=1.40 / pb_ratio=1.30 / aq=1:1.00\nLanguage                       : Russian\nDefault                        : Yes\nForced                         : Yes\n\nAudio #1\nID                             : 2\nFormat                         : DTS\nFormat/Info                    : Digital Theater Systems\nCodec ID                       : A_DTS\nDuration                       : 1h 29mn\nBit rate mode                  : Constant\nBit rate                       : 1 510 Kbps\nChannel(s)                     : 6 channels\nChannel positions              : Front: L C R, Side: L R, LFE\nSampling rate                  : 48.0 KHz\nBit depth                      : 24 bits\nCompression mode               : Lossy\nStream size                    : 966 MiB (27%)\nTitle                          : Original\nLanguage                       : Kazakh\nDefault                        : Yes\nForced                         : Yes\n\nAudio #2\nID                             : 3\nFormat                         : AC-3\nFormat/Info                    : Audio Coding 3\nMode extension                 : CM (complete main)\nFormat settings, Endianness    : Big\nCodec ID                       : A_AC3\nDuration                       : 1h 29mn\nBit rate mode                  : Constant\nBit rate                       : 448 Kbps\nChannel(s)                     : 6 channels\nChannel positions              : Front: L C R, Side: L R, LFE\nSampling rate                  : 48.0 KHz\nBit depth                      : 16 bits\nCompression mode               : Lossy\nStream size                    : 287 MiB (8%)\nTitle                          : Original\nLanguage                       : Kazakh\nDefault                        : No\nForced                         : No\n\nMenu\n00:00:00.000                   : :Chapter 01\n00:15:59.291                   : :Chapter 02\n00:31:24.382                   : :Chapter 03\n00:45:46.618                   : :Chapter 04\n01:02:22.321                   : :Chapter 05\n01:18:58.150                   : :Chapter 06","torrent":{"xt":"urn:btih:243be189f1fd8b4e793b02c243172c611471ba72","amp;dn":"Kelin+%282008%29+BDRip+720p+%26ndash%3B+MediaClub+","amp;tr":["udp%3A%2F%2Ftracker.openbittorrent.com%3A80","udp%3A%2F%2Fopen.demonii.com%3A1337","udp%3A%2F%2Ftracker.coppersurfer.tk%3A6969","udp%3A%2F%2Fexodus.desync.com%3A6969"],"infoHash":"243be189f1fd8b4e793b02c243172c611471ba72","infoHashBuffer":{"type":"Buffer","data":[36,59,225,137,241,253,139,78,121,59,2,194,67,23,44,97,20,113,186,114]},"announce":[],"urlList":[]}}